<?xml version="1.0" standalone="no"?><!DOCTYPE svg PUBLIC "-//W3C//DTD SVG 1.1//EN" "http://www.w3.org/Graphics/SVG/1.1/DTD/svg11.dtd"><svg t="1695790844172" class="icon" viewBox="0 0 1024 1024" version="1.1" xmlns="http://www.w3.org/2000/svg" p-id="16353" xmlns:xlink="http://www.w3.org/1999/xlink" width="200" height="200"><path d="M342.920584 918.978415a373.4 351.2 24.999 1 0 296.835956-636.595771 373.4 351.2 24.999 1 0-296.835956 636.595771Z" fill="#732B7F" p-id="16354"></path><path d="M674.207351 827.459647a21.4 21.4 0 1 0 14.52539-40.259819 21.4 21.4 0 1 0-14.52539 40.259819Z" fill="#8A4199" p-id="16355"></path><path d="M445.518601 892.901059a39.1 39.1 0 1 0 28.019277-73.007946 39.1 39.1 0 1 0-28.019277 73.007946Z" fill="#8A4199" p-id="16356"></path><path d="M578.179663 872.141912a27 27 0 1 0 35.450655-40.733906 27 27 0 1 0-35.450655 40.733906Z" fill="#8A4199" p-id="16357"></path><path d="M547.559511 767.178783a27 27 0 1 0 16.264178-51.49249 27 27 0 1 0-16.264178 51.49249Z" fill="#8A4199" p-id="16358"></path><path d="M295.79122 839.807428a27 27 0 1 0 26.685971-46.945276 27 27 0 1 0-26.685971 46.945276Z" fill="#8A4199" p-id="16359"></path><path d="M743 305.9c-13.2-36.3-39.8-65.3-74.8-81.6-19.3-9-39.9-13.6-61.1-13.6-27.2 0-53.7 7.6-76.8 22-23.7 14.8-42.5 36.1-54.4 61.5-16.2 34.7-16.1 70 0.3 101.9 14.9 29.1 42.2 53.5 78.9 70.6 25.5 11.9 51.8 18.2 76 18.2 48.5 0 86.5-24.3 107.1-68.4 16.3-35 18-74.2 4.8-110.6z" fill="#C2CA10" p-id="16360"></path><path d="M907.9 359.3C882 325.5 842.8 306 800.1 306c-15.3 0-30.1 2.5-44.2 7.4 10.1 35.7 7.2 73.4-8.7 107.4-6 12.9-13.4 24.2-22.1 33.9l5.1 6.3c5.4 6.8 11 13.8 16.6 21 5.5 7.3 10.8 14.5 15.9 21.5 24.4 33.7 45.5 62.7 76.6 62.7 13.6 0 27.7-5.7 43-17.3 28.8-21.9 47.3-53.7 52.1-89.5 4.8-35.7-4.6-71.3-26.5-100.1zM525 224.3c4.4-2.8 8.9-5.3 13.6-7.6-9-66.5-65.7-117.1-134-117.1-2.1 0-4.3 0.1-6.5 0.2-74.5 3.5-132.3 67-128.8 141.6 2.7 56.6 38.7 64.3 73.6 64.3 11.8 0 24.6-0.9 38.1-1.9 8.6-0.6 17.6-1.3 26.7-1.7 9.1-0.4 18.1-0.6 26.8-0.8 9.8-0.2 19.2-0.4 28.1-1 1.3-3.4 2.7-6.8 4.3-10.2 12.7-27.2 32.8-50 58.1-65.8zM722.6 252.5c7-13.8 20.8-38.2 40.6-59.7 18.9-20.5 33-32 48.8-39.6 10.2-5 17.5-14.6 19.4-25.7 1.9-11.2-1.6-22.3-9.6-30.4l-13-13.2c-6.6-6.7-15.5-10.4-25-10.4-4.9 0-9.7 1-14.2 3-35.7 15.8-66.8 49.3-84 75.3-11.3 17.2-21.3 39.5-28.3 57.5 5.1 1.8 10.1 3.8 15 6.1 19.5 8.9 36.5 21.6 50.3 37.1z" fill="#C2CA10" p-id="16361"></path><path d="M915.8 353.3c-14-18.3-31.5-32.7-52.2-42.7C844 301 822 296 800.1 296c-16.3 0-32.2 2.7-47.2 7.9-0.2-0.4-0.3-0.9-0.5-1.3-5.5-15.2-13.3-29.2-22.8-41.6 5.8-11.9 19.9-38.5 41-61.4 21-22.8 33.5-31.4 45.8-37.4 13.1-6.4 22.5-18.7 24.9-33 2.5-14.2-2.1-28.9-12.3-39.2l-13-13.2c-8.4-8.5-20.1-13.4-32.1-13.4-6.3 0-12.5 1.3-18.3 3.9-37.7 16.7-70.3 51.7-88.3 78.9-11.9 18-22.3 41.5-29.5 60.1-13.2-3.6-26.8-5.5-40.7-5.5v20-20c-20.4 0-40.4 4-59.1 11.7-4.9-31.5-20-60.5-43.4-82.7-27.1-25.8-62.7-40.1-100.1-40.1v20-20c-2.3 0-4.6 0.1-6.9 0.2-38.8 1.8-74.5 18.6-100.7 47.4-26.1 28.7-39.5 65.9-37.7 104.7 0.3 5.3 0.8 10.3 1.6 15-14.1 7.6-27.8 16.1-40.7 25.5-4.5 3.2-5.5 9.5-2.2 14 3.2 4.5 9.5 5.5 14 2.2 11.2-8.1 22.7-15.4 34.7-22.1 4.5 10.4 11.1 18.7 19.9 25.1 17.2 12.5 39.2 14.1 56.4 14.1 12.1 0 25.1-0.9 38.8-1.9 8.6-0.6 17.5-1.2 26.5-1.7 9-0.4 17.9-0.6 26.5-0.8 8.4-0.2 16.6-0.4 24.4-0.8-9.2 30.9-6.4 61.8 8.2 90.3 8.1 15.8 19.6 30.3 34.3 43.3 14 12.4 30.6 23.1 49.3 31.8 26.8 12.5 54.6 19.1 80.2 19.1 25.1 0 47.8-6.1 67.4-18 7.1-4.3 13.6-9.4 19.7-15.1 1.4 1.8 2.8 3.6 4.3 5.4 5.4 6.7 10.9 13.7 16.4 20.9 5.5 7.2 10.7 14.4 15.7 21.4 12 16.5 23.3 32.1 35.5 44 15.9 15.4 32 22.9 49.2 22.9 4.1 0 8.3-0.4 12.5-1.3 6.6 59.3-2.7 118.5-28 172.7-39.3 84.2-112.2 146.6-205.5 175.7-93.6 29.2-196.4 21.4-289.4-22C235.8 858 163.8 784.3 126 693.8c-37.7-90.1-36.8-186.1 2.5-270.3 9.8-21 21.9-41 36-59.3 3.4-4.4 2.5-10.7-1.9-14-4.4-3.4-10.7-2.5-14 1.9-14.9 19.5-27.8 40.7-38.2 63.1-21.1 45.2-31.8 93.5-31.9 143.7-0.1 48.4 9.7 96.4 29.1 142.8 19.3 46.3 47.2 88.5 83 125.6 36.9 38.3 80.6 69.4 129.9 92.4 49.3 23 101.2 36.5 154.3 40.1 9.8 0.7 19.5 1 29.2 1 41.2 0 81.6-6.1 120.4-18.2 47.9-15 91-38.3 128.1-69.5 38.4-32.3 68.5-71.6 89.6-116.8 21.1-45.2 31.8-93.5 31.9-143.7 0-14.9-0.9-29.7-2.7-44.4 5.7-2.9 11.4-6.6 17.3-11.1 30.9-23.5 50.7-57.7 55.9-96.1 4.9-38.7-5.2-76.8-28.7-107.7zM694.1 157.1c18.2-27.5 48.6-57.8 79.7-71.6 3.3-1.5 6.7-2.2 10.2-2.2 6.6 0 13 2.6 17.8 7.4l13 13.2c12.1 12.3 8.4 32.6-7.1 40.1-16.1 7.8-30.8 19-51.8 41.8-19.2 20.9-32.9 44.2-40.6 58.8-12.3-12-26.7-22.1-42.8-29.6-1.9-0.9-3.8-1.7-5.7-2.5 6.8-17.2 16.4-38.9 27.3-55.4z m28.6 95.5z m-458.1 18.8c0.1 0.3 0.2 0.7 0.4 1-0.2-0.4-0.3-0.7-0.4-1z m-3.7-14.5c0.2 1.2 0.4 2.4 0.7 3.6-0.2-1.2-0.5-2.4-0.7-3.6z m1 4.9c0.2 1.1 0.5 2.1 0.8 3.2-0.3-1.1-0.6-2.1-0.8-3.2z m1.2 4.8c0.2 0.6 0.4 1.2 0.5 1.8-0.2-0.6-0.3-1.2-0.5-1.8z m203.8 23.5c0-0.1 0-0.1 0 0-17.7 1.3-38.1 1-59.7 2.1-23.5 1.1-45.5 3.5-64.3 3.5-36.5 0-61.4-9.1-63.6-54.7-3.3-69.1 50.2-127.8 119.3-131.1 2-0.1 4-0.1 6-0.1 64.1 0 117.9 48.5 124.5 112.1-1.4 0.8-2.8 1.6-4.1 2.5-25.3 15.7-45.4 38.5-58.1 65.7z m-6.3 15.5c0-0.1 0.1-0.3 0.1-0.4 0 0.1 0 0.3-0.1 0.4z m1.9-5.3c0.1-0.1 0.1-0.1 0 0 0.1-0.1 0.1-0.1 0 0z m1.9-4.6c0.1-0.4 0.3-0.7 0.5-1.1-0.2 0.4-0.4 0.8-0.5 1.1z m74.1-78.9s-0.1 0 0 0c-0.1 0 0 0 0 0z m-4.7 2.4c-0.1 0-0.1 0.1-0.2 0.1 0.1 0 0.1-0.1 0.2-0.1zM631.1 475c-23.1 0-47.6-6-71.7-17.3-67.4-31.4-105.8-91.8-74.3-159.2 22.8-49 71.4-77.8 122.1-77.8 19.1 0 38.4 4.1 56.8 12.7 67.4 31.4 96.6 111.6 65.1 179-20.2 43.2-56.6 62.6-98 62.6z m90.6-16.6l0.1-0.1-0.1 0.1z m6.8-7.7c-0.1 0.1-0.1 0.2-0.2 0.2 0.1 0 0.2-0.1 0.2-0.2z m-3.3 3.9l-0.2 0.2c0.1-0.1 0.2-0.1 0.2-0.2z m136 117.7c0.1 0 0.2-0.1 0.2-0.1 0 0.1-0.1 0.1-0.2 0.1z m-5 1.6c0.1 0 0.2-0.1 0.3-0.1-0.1 0.1-0.2 0.1-0.3 0.1z m2.4-0.7c0.2-0.1 0.4-0.1 0.6-0.2-0.3 0.1-0.4 0.2-0.6 0.2z m17.6-32.1c-14 10.7-26.1 15.3-36.9 15.3-31.7 0-53.3-39.3-84.5-80.3-7.9-10.3-15.8-20-23.1-29.2 5.9-7.8 11.1-16.5 15.6-26 14.4-30.9 18.2-64.9 11.1-97.6 13.6-4.8 27.7-7.2 41.8-7.2 37.8 0 75.1 17 99.8 49.4 41.9 55 31.2 133.6-23.8 175.6z" fill="#420B0D" p-id="16362"></path></svg>